<svg width="532" height="157" viewBox="0 0 532 157" fill="none" xmlns="http://www.w3.org/2000/svg">
<path id="BOLT" d="M223.234 0L199.75 6.52344L183.833 0L158 89.7625H185.137L161.392 156.562L219.842 66.8H184.616L223.234 0Z" fill="#FBD823"/>
<path id="LTD" d="M487.23 117L490.128 99.5455H494.347L492.028 113.574H499.29L498.71 117H487.23ZM500.509 102.972L501.088 99.5455H515.841L515.261 102.972H509.969L507.651 117H503.491L505.81 102.972H500.509ZM521.549 117H515.004L517.901 99.5455H524.251C526.023 99.5455 527.501 99.9062 528.683 100.628C529.87 101.344 530.708 102.372 531.197 103.713C531.691 105.048 531.785 106.639 531.478 108.486C531.183 110.27 530.589 111.798 529.697 113.071C528.81 114.344 527.674 115.318 526.288 115.994C524.901 116.665 523.322 117 521.549 117ZM519.81 113.403H521.813C522.79 113.403 523.654 113.227 524.404 112.875C525.16 112.517 525.785 111.946 526.279 111.162C526.773 110.372 527.126 109.335 527.336 108.051C527.54 106.824 527.532 105.855 527.31 105.145C527.094 104.429 526.674 103.918 526.049 103.611C525.43 103.298 524.62 103.142 523.62 103.142H521.523L519.81 113.403Z" fill="#FBD823"/>
<path id="LEO" d="M232.182 117L247.636 23.9091H272.909L260.909 96.6364H298.545L295.091 117H232.182ZM305.307 117L320.761 23.9091H387.852L384.398 44.2727H342.58L340.034 60.2727H378.398L374.943 80.6364H336.58L334.034 96.6364H375.67L372.216 117H305.307ZM482.568 72.0909C480.871 82.2121 477.508 90.697 472.477 97.5455C467.447 104.394 461.341 109.561 454.159 113.045C446.977 116.53 439.295 118.273 431.114 118.273C422.386 118.273 414.811 116.379 408.386 112.591C401.962 108.803 397.28 103.258 394.341 95.9545C391.402 88.6515 390.811 79.7273 392.568 69.1818C394.205 59.0606 397.538 50.5455 402.568 43.6364C407.598 36.7273 413.735 31.5 420.977 27.9545C428.22 24.4091 435.962 22.6364 444.205 22.6364C452.871 22.6364 460.402 24.5455 466.795 28.3636C473.22 32.1818 477.886 37.7727 480.795 45.1364C483.735 52.5 484.326 61.4848 482.568 72.0909ZM457.114 69.1818C457.962 63.8485 458.023 59.3636 457.295 55.7273C456.568 52.0606 455.038 49.303 452.705 47.4545C450.371 45.5758 447.235 44.6364 443.295 44.6364C438.811 44.6364 434.841 45.7273 431.386 47.9091C427.932 50.0909 425.068 53.2273 422.795 57.3182C420.523 61.4091 418.932 66.3333 418.023 72.0909C417.053 77.4848 416.962 81.9697 417.75 85.5455C418.568 89.1212 420.174 91.803 422.568 93.5909C424.992 95.3788 428.144 96.2727 432.023 96.2727C436.447 96.2727 440.356 95.2121 443.75 93.0909C447.174 90.9697 450.008 87.8939 452.25 83.8636C454.523 79.8333 456.144 74.9394 457.114 69.1818Z" fill="#FBD823"/>
<path id="EL" d="M0.181818 117L15.6364 23.9091H82.7273L79.2727 44.2727H37.4545L34.9091 60.2727H73.2727L69.8182 80.6364H31.4545L28.9091 96.6364H70.5455L67.0909 117H0.181818ZM79.8068 117L95.2614 23.9091H120.534L108.534 96.6364H146.17L142.716 117H79.8068Z" fill="white"/>
</svg>
